<mxfile host="app.diagrams.net" modified="2024-03-11T02:54:05.890Z" agent="Mozilla/5.0 (Windows NT 10.0; Win64; x64) AppleWebKit/537.36 (KHTML, like Gecko) Chrome/122.0.0.0 Safari/537.36 Edg/122.0.0.0" etag="M8RDObdKT5S0IDxnVgCM" version="24.0.4" type="device">
  <diagram name="Page-1" id="7IuLw5douFnJ42U7j5Z5">
    <mxGraphModel dx="1471" dy="1014" grid="1" gridSize="10" guides="1" tooltips="1" connect="1" arrows="1" fold="1" page="1" pageScale="1" pageWidth="1200" pageHeight="1920" math="0" shadow="0">
      <root>
        <mxCell id="0" />
        <mxCell id="1" parent="0" />
        <mxCell id="nexeXoH5XIp3nX3RBr7s-72" value="" style="rounded=0;whiteSpace=wrap;html=1;" parent="1" vertex="1">
          <mxGeometry x="200" y="40" width="840" height="680" as="geometry" />
        </mxCell>
        <mxCell id="nexeXoH5XIp3nX3RBr7s-53" style="edgeStyle=orthogonalEdgeStyle;rounded=0;orthogonalLoop=1;jettySize=auto;html=1;entryX=0;entryY=0.5;entryDx=0;entryDy=0;" parent="1" source="WgtjepLcoBoNWOLz_rrN-1" target="nexeXoH5XIp3nX3RBr7s-6" edge="1">
          <mxGeometry relative="1" as="geometry" />
        </mxCell>
        <mxCell id="nexeXoH5XIp3nX3RBr7s-54" style="rounded=0;orthogonalLoop=1;jettySize=auto;html=1;entryX=0;entryY=0.5;entryDx=0;entryDy=0;" parent="1" source="WgtjepLcoBoNWOLz_rrN-1" target="nexeXoH5XIp3nX3RBr7s-1" edge="1">
          <mxGeometry relative="1" as="geometry" />
        </mxCell>
        <mxCell id="nexeXoH5XIp3nX3RBr7s-55" style="rounded=0;orthogonalLoop=1;jettySize=auto;html=1;entryX=0;entryY=0.5;entryDx=0;entryDy=0;" parent="1" source="WgtjepLcoBoNWOLz_rrN-1" target="nexeXoH5XIp3nX3RBr7s-13" edge="1">
          <mxGeometry relative="1" as="geometry" />
        </mxCell>
        <mxCell id="WgtjepLcoBoNWOLz_rrN-1" value="User" style="shape=umlActor;verticalLabelPosition=bottom;verticalAlign=top;html=1;outlineConnect=0;" parent="1" vertex="1">
          <mxGeometry x="130" y="330" width="30" height="60" as="geometry" />
        </mxCell>
        <mxCell id="nexeXoH5XIp3nX3RBr7s-5" value="" style="edgeStyle=orthogonalEdgeStyle;rounded=0;orthogonalLoop=1;jettySize=auto;html=1;dashed=1;dashPattern=8 8;" parent="1" source="nexeXoH5XIp3nX3RBr7s-1" target="nexeXoH5XIp3nX3RBr7s-4" edge="1">
          <mxGeometry relative="1" as="geometry" />
        </mxCell>
        <mxCell id="nexeXoH5XIp3nX3RBr7s-73" value="&amp;lt;&amp;lt;includes&amp;gt;&amp;gt;" style="edgeLabel;html=1;align=center;verticalAlign=middle;resizable=0;points=[];" parent="nexeXoH5XIp3nX3RBr7s-5" vertex="1" connectable="0">
          <mxGeometry x="-0.0264" y="1" relative="1" as="geometry">
            <mxPoint x="-1" as="offset" />
          </mxGeometry>
        </mxCell>
        <mxCell id="nexeXoH5XIp3nX3RBr7s-1" value="Login with company account" style="ellipse;whiteSpace=wrap;html=1;" parent="1" vertex="1">
          <mxGeometry x="250" y="90" width="120" height="60" as="geometry" />
        </mxCell>
        <mxCell id="nexeXoH5XIp3nX3RBr7s-4" value="Verify password" style="ellipse;whiteSpace=wrap;html=1;" parent="1" vertex="1">
          <mxGeometry x="750" y="90" width="120" height="60" as="geometry" />
        </mxCell>
        <mxCell id="nexeXoH5XIp3nX3RBr7s-39" style="edgeStyle=orthogonalEdgeStyle;rounded=0;orthogonalLoop=1;jettySize=auto;html=1;dashed=1;dashPattern=8 8;startArrow=classic;startFill=1;endArrow=none;endFill=0;" parent="1" source="nexeXoH5XIp3nX3RBr7s-6" target="nexeXoH5XIp3nX3RBr7s-7" edge="1">
          <mxGeometry relative="1" as="geometry" />
        </mxCell>
        <mxCell id="nexeXoH5XIp3nX3RBr7s-59" value="&amp;lt;&amp;lt;extends&amp;gt;&amp;gt;" style="edgeLabel;html=1;align=center;verticalAlign=middle;resizable=0;points=[];" parent="nexeXoH5XIp3nX3RBr7s-39" vertex="1" connectable="0">
          <mxGeometry x="-0.1016" y="2" relative="1" as="geometry">
            <mxPoint as="offset" />
          </mxGeometry>
        </mxCell>
        <mxCell id="nexeXoH5XIp3nX3RBr7s-46" style="rounded=0;orthogonalLoop=1;jettySize=auto;html=1;entryX=0;entryY=0;entryDx=0;entryDy=0;dashed=1;dashPattern=8 8;startArrow=classic;startFill=1;endArrow=none;endFill=0;" parent="1" source="nexeXoH5XIp3nX3RBr7s-6" target="nexeXoH5XIp3nX3RBr7s-8" edge="1">
          <mxGeometry relative="1" as="geometry" />
        </mxCell>
        <mxCell id="nexeXoH5XIp3nX3RBr7s-60" value="&amp;lt;&amp;lt;extends&amp;gt;&amp;gt;" style="edgeLabel;html=1;align=center;verticalAlign=middle;resizable=0;points=[];" parent="nexeXoH5XIp3nX3RBr7s-46" vertex="1" connectable="0">
          <mxGeometry x="-0.1196" y="1" relative="1" as="geometry">
            <mxPoint y="-1" as="offset" />
          </mxGeometry>
        </mxCell>
        <mxCell id="nexeXoH5XIp3nX3RBr7s-47" style="rounded=0;orthogonalLoop=1;jettySize=auto;html=1;entryX=0;entryY=1;entryDx=0;entryDy=0;dashed=1;dashPattern=8 8;startArrow=classic;startFill=1;endArrow=none;endFill=0;" parent="1" source="nexeXoH5XIp3nX3RBr7s-6" target="nexeXoH5XIp3nX3RBr7s-10" edge="1">
          <mxGeometry relative="1" as="geometry" />
        </mxCell>
        <mxCell id="nexeXoH5XIp3nX3RBr7s-57" value="&amp;lt;&amp;lt;extends&amp;gt;&amp;gt;" style="edgeLabel;html=1;align=center;verticalAlign=middle;resizable=0;points=[];" parent="nexeXoH5XIp3nX3RBr7s-47" vertex="1" connectable="0">
          <mxGeometry x="-0.0096" y="2" relative="1" as="geometry">
            <mxPoint as="offset" />
          </mxGeometry>
        </mxCell>
        <mxCell id="nexeXoH5XIp3nX3RBr7s-6" value="Open chat session" style="ellipse;whiteSpace=wrap;html=1;" parent="1" vertex="1">
          <mxGeometry x="250" y="330" width="120" height="60" as="geometry" />
        </mxCell>
        <mxCell id="nexeXoH5XIp3nX3RBr7s-42" style="edgeStyle=orthogonalEdgeStyle;rounded=0;orthogonalLoop=1;jettySize=auto;html=1;entryX=0;entryY=0.5;entryDx=0;entryDy=0;dashed=1;dashPattern=8 8;" parent="1" source="nexeXoH5XIp3nX3RBr7s-7" target="nexeXoH5XIp3nX3RBr7s-15" edge="1">
          <mxGeometry relative="1" as="geometry" />
        </mxCell>
        <mxCell id="nexeXoH5XIp3nX3RBr7s-67" value="&amp;lt;&amp;lt;includes&amp;gt;&amp;gt;" style="edgeLabel;html=1;align=center;verticalAlign=middle;resizable=0;points=[];" parent="nexeXoH5XIp3nX3RBr7s-42" vertex="1" connectable="0">
          <mxGeometry x="-0.107" relative="1" as="geometry">
            <mxPoint as="offset" />
          </mxGeometry>
        </mxCell>
        <mxCell id="nexeXoH5XIp3nX3RBr7s-7" value="Send message" style="ellipse;whiteSpace=wrap;html=1;" parent="1" vertex="1">
          <mxGeometry x="470" y="330" width="120" height="60" as="geometry" />
        </mxCell>
        <mxCell id="nexeXoH5XIp3nX3RBr7s-70" value="" style="edgeStyle=orthogonalEdgeStyle;rounded=0;orthogonalLoop=1;jettySize=auto;html=1;dashed=1;dashPattern=8 8;" parent="1" source="nexeXoH5XIp3nX3RBr7s-8" target="nexeXoH5XIp3nX3RBr7s-69" edge="1">
          <mxGeometry relative="1" as="geometry" />
        </mxCell>
        <mxCell id="nexeXoH5XIp3nX3RBr7s-71" value="&amp;lt;&amp;lt;includes&amp;gt;&amp;gt;" style="edgeLabel;html=1;align=center;verticalAlign=middle;resizable=0;points=[];" parent="nexeXoH5XIp3nX3RBr7s-70" vertex="1" connectable="0">
          <mxGeometry x="-0.2057" y="3" relative="1" as="geometry">
            <mxPoint as="offset" />
          </mxGeometry>
        </mxCell>
        <mxCell id="nexeXoH5XIp3nX3RBr7s-8" value="Read new messages" style="ellipse;whiteSpace=wrap;html=1;" parent="1" vertex="1">
          <mxGeometry x="400" y="490" width="120" height="60" as="geometry" />
        </mxCell>
        <mxCell id="nexeXoH5XIp3nX3RBr7s-34" value="" style="edgeStyle=orthogonalEdgeStyle;rounded=0;orthogonalLoop=1;jettySize=auto;html=1;dashed=1;dashPattern=8 8;" parent="1" source="nexeXoH5XIp3nX3RBr7s-9" target="nexeXoH5XIp3nX3RBr7s-7" edge="1">
          <mxGeometry relative="1" as="geometry" />
        </mxCell>
        <mxCell id="nexeXoH5XIp3nX3RBr7s-65" value="&amp;lt;&amp;lt;extends&amp;gt;&amp;gt;" style="edgeLabel;html=1;align=center;verticalAlign=middle;resizable=0;points=[];" parent="nexeXoH5XIp3nX3RBr7s-34" vertex="1" connectable="0">
          <mxGeometry x="0.1528" y="1" relative="1" as="geometry">
            <mxPoint as="offset" />
          </mxGeometry>
        </mxCell>
        <mxCell id="nexeXoH5XIp3nX3RBr7s-9" value="Send files" style="ellipse;whiteSpace=wrap;html=1;" parent="1" vertex="1">
          <mxGeometry x="470" y="420" width="120" height="60" as="geometry" />
        </mxCell>
        <mxCell id="nexeXoH5XIp3nX3RBr7s-10" value="View previous messages" style="ellipse;whiteSpace=wrap;html=1;" parent="1" vertex="1">
          <mxGeometry x="400" y="170.00000000000003" width="120" height="60" as="geometry" />
        </mxCell>
        <mxCell id="nexeXoH5XIp3nX3RBr7s-35" value="" style="edgeStyle=orthogonalEdgeStyle;rounded=0;orthogonalLoop=1;jettySize=auto;html=1;dashed=1;dashPattern=8 8;" parent="1" source="nexeXoH5XIp3nX3RBr7s-11" target="nexeXoH5XIp3nX3RBr7s-7" edge="1">
          <mxGeometry relative="1" as="geometry" />
        </mxCell>
        <mxCell id="nexeXoH5XIp3nX3RBr7s-61" value="&amp;lt;&amp;lt;extends&amp;gt;&amp;gt;" style="edgeLabel;html=1;align=center;verticalAlign=middle;resizable=0;points=[];" parent="nexeXoH5XIp3nX3RBr7s-35" vertex="1" connectable="0">
          <mxGeometry x="-0.5242" y="-1" relative="1" as="geometry">
            <mxPoint as="offset" />
          </mxGeometry>
        </mxCell>
        <mxCell id="nexeXoH5XIp3nX3RBr7s-11" value="Send suggested text replies" style="ellipse;whiteSpace=wrap;html=1;" parent="1" vertex="1">
          <mxGeometry x="470" y="240" width="120" height="60" as="geometry" />
        </mxCell>
        <mxCell id="nexeXoH5XIp3nX3RBr7s-40" style="rounded=0;orthogonalLoop=1;jettySize=auto;html=1;exitX=0;exitY=0;exitDx=0;exitDy=0;entryX=1;entryY=1;entryDx=0;entryDy=0;dashed=1;dashPattern=8 8;" parent="1" source="nexeXoH5XIp3nX3RBr7s-12" target="nexeXoH5XIp3nX3RBr7s-7" edge="1">
          <mxGeometry relative="1" as="geometry" />
        </mxCell>
        <mxCell id="nexeXoH5XIp3nX3RBr7s-64" value="&amp;lt;&amp;lt;extends&amp;gt;&amp;gt;" style="edgeLabel;html=1;align=center;verticalAlign=middle;resizable=0;points=[];" parent="nexeXoH5XIp3nX3RBr7s-40" vertex="1" connectable="0">
          <mxGeometry x="-0.0502" y="-2" relative="1" as="geometry">
            <mxPoint as="offset" />
          </mxGeometry>
        </mxCell>
        <mxCell id="nexeXoH5XIp3nX3RBr7s-12" value="Send self-destructing text messages" style="ellipse;whiteSpace=wrap;html=1;" parent="1" vertex="1">
          <mxGeometry x="610" y="400" width="120" height="60" as="geometry" />
        </mxCell>
        <mxCell id="nexeXoH5XIp3nX3RBr7s-13" value="Create a chat&amp;nbsp;" style="ellipse;whiteSpace=wrap;html=1;" parent="1" vertex="1">
          <mxGeometry x="250" y="570" width="120" height="60" as="geometry" />
        </mxCell>
        <mxCell id="nexeXoH5XIp3nX3RBr7s-33" style="rounded=0;orthogonalLoop=1;jettySize=auto;html=1;exitX=0;exitY=1;exitDx=0;exitDy=0;entryX=1;entryY=0;entryDx=0;entryDy=0;dashed=1;dashPattern=8 8;" parent="1" source="nexeXoH5XIp3nX3RBr7s-14" target="nexeXoH5XIp3nX3RBr7s-7" edge="1">
          <mxGeometry relative="1" as="geometry" />
        </mxCell>
        <mxCell id="nexeXoH5XIp3nX3RBr7s-62" value="&amp;lt;&amp;lt;extends&amp;gt;&amp;gt;" style="edgeLabel;html=1;align=center;verticalAlign=middle;resizable=0;points=[];" parent="nexeXoH5XIp3nX3RBr7s-33" vertex="1" connectable="0">
          <mxGeometry x="-0.0553" y="-2" relative="1" as="geometry">
            <mxPoint as="offset" />
          </mxGeometry>
        </mxCell>
        <mxCell id="nexeXoH5XIp3nX3RBr7s-14" value="Send normal text" style="ellipse;whiteSpace=wrap;html=1;" parent="1" vertex="1">
          <mxGeometry x="610" y="260" width="120" height="60" as="geometry" />
        </mxCell>
        <mxCell id="nexeXoH5XIp3nX3RBr7s-43" value="" style="edgeStyle=orthogonalEdgeStyle;rounded=0;orthogonalLoop=1;jettySize=auto;html=1;dashed=1;dashPattern=8 8;" parent="1" source="nexeXoH5XIp3nX3RBr7s-15" target="nexeXoH5XIp3nX3RBr7s-18" edge="1">
          <mxGeometry relative="1" as="geometry" />
        </mxCell>
        <mxCell id="nexeXoH5XIp3nX3RBr7s-68" value="&amp;lt;&amp;lt;includes&amp;gt;&amp;gt;" style="edgeLabel;html=1;align=center;verticalAlign=middle;resizable=0;points=[];" parent="nexeXoH5XIp3nX3RBr7s-43" vertex="1" connectable="0">
          <mxGeometry x="-0.2094" y="1" relative="1" as="geometry">
            <mxPoint as="offset" />
          </mxGeometry>
        </mxCell>
        <mxCell id="nexeXoH5XIp3nX3RBr7s-15" value="Encrypt messages" style="ellipse;whiteSpace=wrap;html=1;" parent="1" vertex="1">
          <mxGeometry x="690" y="330" width="120" height="60" as="geometry" />
        </mxCell>
        <mxCell id="nexeXoH5XIp3nX3RBr7s-18" value="Store messages on server" style="ellipse;whiteSpace=wrap;html=1;" parent="1" vertex="1">
          <mxGeometry x="900" y="330" width="120" height="60" as="geometry" />
        </mxCell>
        <mxCell id="nexeXoH5XIp3nX3RBr7s-27" value="Send messages to recipient" style="ellipse;whiteSpace=wrap;html=1;" parent="1" vertex="1">
          <mxGeometry x="860" y="490" width="120" height="60" as="geometry" />
        </mxCell>
        <mxCell id="ywYnWI-GTOJYPPlXq-J--1" value="" style="edgeStyle=orthogonalEdgeStyle;rounded=0;orthogonalLoop=1;jettySize=auto;html=1;dashed=1;dashPattern=8 8;" parent="1" source="nexeXoH5XIp3nX3RBr7s-69" target="nexeXoH5XIp3nX3RBr7s-27" edge="1">
          <mxGeometry relative="1" as="geometry" />
        </mxCell>
        <mxCell id="ywYnWI-GTOJYPPlXq-J--2" value="&amp;lt;&amp;lt;includes&amp;gt;&amp;gt;" style="edgeLabel;html=1;align=center;verticalAlign=middle;resizable=0;points=[];" parent="ywYnWI-GTOJYPPlXq-J--1" vertex="1" connectable="0">
          <mxGeometry x="-0.0662" y="3" relative="1" as="geometry">
            <mxPoint as="offset" />
          </mxGeometry>
        </mxCell>
        <mxCell id="nexeXoH5XIp3nX3RBr7s-69" value="Decrypt messages" style="ellipse;whiteSpace=wrap;html=1;" parent="1" vertex="1">
          <mxGeometry x="640" y="490" width="120" height="60" as="geometry" />
        </mxCell>
        <mxCell id="KRD9_q7JqVz9VdNiBFXr-1" value="Add individuals to chat" style="ellipse;whiteSpace=wrap;html=1;" parent="1" vertex="1">
          <mxGeometry x="250" y="190" width="120" height="70" as="geometry" />
        </mxCell>
        <mxCell id="KRD9_q7JqVz9VdNiBFXr-2" value="Remove individuals from chat" style="ellipse;whiteSpace=wrap;html=1;" parent="1" vertex="1">
          <mxGeometry x="250" y="460" width="120" height="70" as="geometry" />
        </mxCell>
        <mxCell id="KRD9_q7JqVz9VdNiBFXr-3" style="rounded=0;orthogonalLoop=1;jettySize=auto;html=1;entryX=0.5;entryY=1;entryDx=0;entryDy=0;dashed=1;dashPattern=8 8;startArrow=classic;startFill=1;endArrow=none;endFill=0;exitX=0.5;exitY=0;exitDx=0;exitDy=0;" parent="1" source="nexeXoH5XIp3nX3RBr7s-6" target="KRD9_q7JqVz9VdNiBFXr-1" edge="1">
          <mxGeometry relative="1" as="geometry">
            <mxPoint x="300" y="330" as="sourcePoint" />
            <mxPoint x="386" y="219" as="targetPoint" />
          </mxGeometry>
        </mxCell>
        <mxCell id="KRD9_q7JqVz9VdNiBFXr-4" value="&amp;lt;&amp;lt;extends&amp;gt;&amp;gt;" style="edgeLabel;html=1;align=center;verticalAlign=middle;resizable=0;points=[];" parent="KRD9_q7JqVz9VdNiBFXr-3" vertex="1" connectable="0">
          <mxGeometry x="-0.0096" y="2" relative="1" as="geometry">
            <mxPoint as="offset" />
          </mxGeometry>
        </mxCell>
        <mxCell id="KRD9_q7JqVz9VdNiBFXr-5" style="rounded=0;orthogonalLoop=1;jettySize=auto;html=1;entryX=0.5;entryY=0;entryDx=0;entryDy=0;dashed=1;dashPattern=8 8;startArrow=classic;startFill=1;endArrow=none;endFill=0;exitX=0.5;exitY=1;exitDx=0;exitDy=0;" parent="1" source="nexeXoH5XIp3nX3RBr7s-6" target="KRD9_q7JqVz9VdNiBFXr-2" edge="1">
          <mxGeometry relative="1" as="geometry">
            <mxPoint x="352" y="352" as="sourcePoint" />
            <mxPoint x="438" y="241" as="targetPoint" />
          </mxGeometry>
        </mxCell>
        <mxCell id="KRD9_q7JqVz9VdNiBFXr-6" value="&amp;lt;&amp;lt;extends&amp;gt;&amp;gt;" style="edgeLabel;html=1;align=center;verticalAlign=middle;resizable=0;points=[];" parent="KRD9_q7JqVz9VdNiBFXr-5" vertex="1" connectable="0">
          <mxGeometry x="-0.0096" y="2" relative="1" as="geometry">
            <mxPoint as="offset" />
          </mxGeometry>
        </mxCell>
        <mxCell id="KRD9_q7JqVz9VdNiBFXr-7" value="Add individuals" style="ellipse;whiteSpace=wrap;html=1;" parent="1" vertex="1">
          <mxGeometry x="490" y="570" width="120" height="60" as="geometry" />
        </mxCell>
        <mxCell id="KRD9_q7JqVz9VdNiBFXr-8" value="" style="edgeStyle=orthogonalEdgeStyle;rounded=0;orthogonalLoop=1;jettySize=auto;html=1;dashed=1;dashPattern=8 8;exitX=1;exitY=0.5;exitDx=0;exitDy=0;" parent="1" source="nexeXoH5XIp3nX3RBr7s-13" target="KRD9_q7JqVz9VdNiBFXr-7" edge="1">
          <mxGeometry relative="1" as="geometry">
            <mxPoint x="530" y="530" as="sourcePoint" />
            <mxPoint x="650" y="530" as="targetPoint" />
          </mxGeometry>
        </mxCell>
        <mxCell id="KRD9_q7JqVz9VdNiBFXr-9" value="&amp;lt;&amp;lt;includes&amp;gt;&amp;gt;" style="edgeLabel;html=1;align=center;verticalAlign=middle;resizable=0;points=[];" parent="KRD9_q7JqVz9VdNiBFXr-8" vertex="1" connectable="0">
          <mxGeometry x="-0.2057" y="3" relative="1" as="geometry">
            <mxPoint as="offset" />
          </mxGeometry>
        </mxCell>
        <mxCell id="H76L07-WF8wknJ7cpmyx-7" style="edgeStyle=orthogonalEdgeStyle;rounded=0;orthogonalLoop=1;jettySize=auto;html=1;" edge="1" parent="1" source="H76L07-WF8wknJ7cpmyx-1" target="H76L07-WF8wknJ7cpmyx-2">
          <mxGeometry relative="1" as="geometry" />
        </mxCell>
        <mxCell id="H76L07-WF8wknJ7cpmyx-8" style="edgeStyle=orthogonalEdgeStyle;rounded=0;orthogonalLoop=1;jettySize=auto;html=1;" edge="1" parent="1" source="H76L07-WF8wknJ7cpmyx-1" target="H76L07-WF8wknJ7cpmyx-5">
          <mxGeometry relative="1" as="geometry" />
        </mxCell>
        <mxCell id="H76L07-WF8wknJ7cpmyx-1" value="Admin" style="shape=umlActor;verticalLabelPosition=bottom;verticalAlign=top;html=1;outlineConnect=0;" vertex="1" parent="1">
          <mxGeometry x="1090" y="200" width="30" height="60" as="geometry" />
        </mxCell>
        <mxCell id="H76L07-WF8wknJ7cpmyx-2" value="Add new user accounts" style="ellipse;whiteSpace=wrap;html=1;" vertex="1" parent="1">
          <mxGeometry x="900" y="170" width="120" height="60" as="geometry" />
        </mxCell>
        <mxCell id="H76L07-WF8wknJ7cpmyx-5" value="Remove user accounts" style="ellipse;whiteSpace=wrap;html=1;" vertex="1" parent="1">
          <mxGeometry x="900" y="240" width="120" height="60" as="geometry" />
        </mxCell>
      </root>
    </mxGraphModel>
  </diagram>
</mxfile>
